HIERARCHY
ROOT joint_Root
{
	OFFSET 0.0 0.0 0.0
	CHANNELS 6 Xposition Yposition Zposition Zrotation Xrotation Yrotation 
	JOINT Hips
	{
		OFFSET -17.1583 93.1646 452.98
		CHANNELS 6 Xposition Yposition Zposition Zrotation Xrotation Yrotation 
		JOINT Spine
		{
			OFFSET 15.7357 0.0 0.0
			CHANNELS 6 Xposition Yposition Zposition Zrotation Xrotation Yrotation 
			JOINT Chest
			{
				OFFSET 8.98455 -0.406207 0.0
				CHANNELS 6 Xposition Yposition Zposition Zrotation Xrotation Yrotation 
				JOINT Neck
				{
					OFFSET 16.3773 0.0 0.0
					CHANNELS 6 Xposition Yposition Zposition Zrotation Xrotation Yrotation 
					JOINT Head
					{
						OFFSET 6.45672 0.0 0.0
						CHANNELS 6 Xposition Yposition Zposition Zrotation Xrotation Yrotation 
						End Site
						{
							OFFSET 0.0 0.0 0.0
						}
					}
				}
				JOINT Shoulder_L
				{
					OFFSET 12.9942 -0.242716 4.98039
					CHANNELS 6 Xposition Yposition Zposition Zrotation Xrotation Yrotation 
					JOINT UpperArm_L
					{
						OFFSET 5.34809 0.0 0.0
						CHANNELS 6 Xposition Yposition Zposition Zrotation Xrotation Yrotation 
						JOINT LowerArm_L
						{
							OFFSET 24.3286 1.87007e-05 0.0
							CHANNELS 6 Xposition Yposition Zposition Zrotation Xrotation Yrotation 
							JOINT Hand_L
							{
								OFFSET 22.2916 0.0 0.0
								CHANNELS 6 Xposition Yposition Zposition Zrotation Xrotation Yrotation 
								End Site
								{
									OFFSET 0.0 0.0 0.0
								}
							}
						}
					}
				}
				JOINT Shoulder_R
				{
					OFFSET 12.9945 -0.242716 -4.98039
					CHANNELS 6 Xposition Yposition Zposition Zrotation Xrotation Yrotation 
					JOINT UpperArm_R
					{
						OFFSET -5.34813 0.0 0.0
						CHANNELS 6 Xposition Yposition Zposition Zrotation Xrotation Yrotation 
						JOINT LowerArm_R
						{
							OFFSET -24.3289 0.000322201 0.0
							CHANNELS 6 Xposition Yposition Zposition Zrotation Xrotation Yrotation 
							JOINT Hand_R
							{
								OFFSET -22.2915 -0.000108084 0.0
								CHANNELS 6 Xposition Yposition Zposition Zrotation Xrotation Yrotation 
								End Site
								{
									OFFSET 0.0 0.0 0.0
								}
							}
						}
					}
				}
			}
		}
		JOINT UpperLeg_L
		{
			OFFSET -2.19248 -6.46944 0.0
			CHANNELS 6 Xposition Yposition Zposition Zrotation Xrotation Yrotation 
			JOINT LowerLeg_L
			{
				OFFSET 39.0811 0.0 -1.23785e-05
				CHANNELS 6 Xposition Yposition Zposition Zrotation Xrotation Yrotation 
				JOINT Foot_L
				{
					OFFSET 40.9854 0.0 -1.26872e-05
					CHANNELS 6 Xposition Yposition Zposition Zrotation Xrotation Yrotation 
					JOINT Toes_L
					{
						OFFSET 11.7543 0.0 0.0
						CHANNELS 6 Xposition Yposition Zposition Zrotation Xrotation Yrotation 
						End Site
						{
							OFFSET 0.0 0.0 0.0
						}
					}
				}
			}
		}
		JOINT UpperLeg_R
		{
			OFFSET -2.19251 6.46944 0.0
			CHANNELS 6 Xposition Yposition Zposition Zrotation Xrotation Yrotation 
			JOINT LowerLeg_R
			{
				OFFSET -39.0811 -0.00228153 -0.0401928
				CHANNELS 6 Xposition Yposition Zposition Zrotation Xrotation Yrotation 
				JOINT Foot_R
				{
					OFFSET -40.9854 0.0 0.0
					CHANNELS 6 Xposition Yposition Zposition Zrotation Xrotation Yrotation 
					JOINT Toes_R
					{
						OFFSET -11.7543 0.0 0.0
						CHANNELS 6 Xposition Yposition Zposition Zrotation Xrotation Yrotation 
						End Site
						{
							OFFSET 0.0 0.0 0.0
						}
					}
				}
			}
		}
	}
}
MOTION
Frames:	6
Frame Time:	0.0333333
0.000000 0.000000 0.000000 0.000000 0.000000 -0.000000 -4.384320 91.454000 -0.650657 81.374900 -3.917900 3.766580 15.735700 0.000005 -0.000001 72.415300 86.577600 -67.874100 8.984550 -0.406207 -0.000000 -1.129160 -2.419440 9.056550 16.377300 -0.000001 -0.000001 13.705600 4.418600 9.216030 6.456720 -0.000001 -0.000000 4.072840 7.929380 7.876690 12.994200 -0.242716 4.980390 -91.702900 4.803850 -70.454600 5.348090 -0.000007 -0.000001 -73.892700 -12.156600 3.772360 24.328600 0.000019 0.000005 39.426500 -41.494000 -128.863000 22.291600 -0.000001 0.000005 55.305600 4.982610 7.687230 12.994500 -0.242716 -4.980390 88.230400 4.863810 -69.979600 -5.348130 -0.000001 -0.000004 -70.173400 -1.259270 -7.251800 -24.328900 0.000322 -0.000009 15.632100 -18.875000 -139.142000 -22.291500 -0.000108 -0.000004 60.719400 5.662120 -16.311700 -2.192480 -6.469440 -0.000000 -168.380000 0.977254 -4.959140 39.081100 -0.000007 -0.000012 0.501252 -0.807237 31.839600 40.985400 -0.000006 -0.000013 -0.323305 6.352610 -78.555800 11.754300 -0.000000 0.000003 0.000470 0.159293 -10.116400 -2.192510 6.469440 -0.000001 -167.115000 7.424770 -176.675000 -39.081100 -0.002282 -0.040193 0.130206 -0.437511 16.172200 -40.985400 0.000008 0.000006 6.133040 2.091050 -71.233700 -11.754300 -0.000006 -0.000006 -0.010150 0.272419 -5.505440
0.000000 0.000000 0.000000 0.000000 0.000000 -0.000000 -4.351510 91.460500 -0.671172 81.402900 -3.895830 3.748340 15.735700 0.000005 -0.000001 72.412600 86.597800 -67.884600 8.984550 -0.406207 -0.000000 -1.168570 -2.408090 9.029360 16.377300 -0.000001 -0.000001 13.729000 4.392560 9.209770 6.456720 -0.000001 -0.000000 4.066000 7.897480 7.782790 12.994200 -0.242716 4.980390 -91.711000 4.816710 -70.417700 5.348090 -0.000007 -0.000001 -73.848100 -12.131900 3.737650 24.328600 0.000019 0.000005 39.693000 -41.585300 -128.648000 22.291600 -0.000001 0.000005 55.148600 4.967150 8.009310 12.994500 -0.242716 -4.980390 88.238700 4.842400 -69.984500 -5.348130 -0.000001 -0.000004 -70.146400 -1.209690 -7.237580 -24.328900 0.000322 -0.000009 15.709100 -18.950900 -139.105000 -22.291500 -0.000108 -0.000004 60.635100 5.660060 -16.069000 -2.192480 -6.469440 -0.000000 -168.428000 0.963793 -4.998080 39.081100 -0.000007 -0.000012 0.501445 -0.808340 31.814400 40.985400 -0.000006 -0.000013 -0.289653 6.385190 -78.473600 11.754300 -0.000000 0.000003 0.000514 0.158470 -10.149800 -2.192510 6.469440 -0.000001 -167.133000 7.311890 -176.730000 -39.081100 -0.002282 -0.040193 0.131165 -0.440204 16.193700 -40.985400 0.000008 0.000006 6.091910 1.954770 -71.204100 -11.754300 -0.000006 -0.000006 -0.009968 0.271067 -5.560730
0.000000 0.000000 0.000000 0.000000 0.000000 -0.000000 -4.324650 91.469400 -0.688526 81.439300 -3.856320 3.796050 15.735700 0.000005 -0.000001 72.771700 86.609800 -68.260400 8.984550 -0.406207 -0.000000 -1.181180 -2.359470 8.996300 16.377300 -0.000001 -0.000001 13.754300 4.342250 9.261150 6.456720 -0.000001 -0.000000 4.093280 7.809800 7.681760 12.994200 -0.242716 4.980390 -91.715500 4.832310 -70.428200 5.348090 -0.000007 -0.000001 -73.861700 -12.167100 3.753420 24.328600 0.000019 0.000005 39.240900 -41.245500 -128.910000 22.291600 -0.000001 0.000005 54.744800 4.988020 7.572840 12.994500 -0.242716 -4.980390 88.243500 4.824150 -69.966000 -5.348130 -0.000001 -0.000004 -70.154900 -1.273780 -7.173800 -24.328900 0.000322 -0.000009 15.715800 -18.897800 -139.015000 -22.291500 -0.000108 -0.000004 60.415800 5.659750 -16.039700 -2.192480 -6.469440 -0.000000 -168.477000 0.943731 -4.949510 39.081100 -0.000007 -0.000012 0.498788 -0.805423 31.770800 40.985400 -0.000006 -0.000013 -0.263611 6.416900 -78.469300 11.754300 -0.000000 0.000003 0.000560 0.157599 -10.185100 -2.192510 6.469440 -0.000001 -167.160000 7.201430 -176.700000 -39.081100 -0.002282 -0.040193 0.131450 -0.441364 16.187400 -40.985400 0.000008 0.000006 6.051440 1.798530 -71.205800 -11.754300 -0.000006 -0.000006 -0.010107 0.272105 -5.518260
0.000000 0.000000 0.000000 0.000000 0.000000 -0.000000 -4.301360 91.476800 -0.713424 81.445200 -3.805780 3.770300 15.735700 0.000005 -0.000001 72.933000 86.632200 -68.426400 8.984550 -0.406207 -0.000000 -1.219720 -2.329240 8.986400 16.377300 -0.000001 -0.000001 13.742800 4.306110 9.293170 6.456720 -0.000001 -0.000000 4.119330 7.714560 7.647680 12.994200 -0.242716 4.980390 -91.731200 4.871110 -70.408100 5.348090 -0.000007 -0.000001 -73.811000 -12.201400 3.736900 24.328600 0.000019 0.000005 39.071300 -41.020800 -128.954000 22.291600 -0.000001 0.000005 54.646000 4.990820 7.513700 12.994500 -0.242716 -4.980390 88.248200 4.813830 -69.975700 -5.348130 -0.000001 -0.000004 -70.110700 -1.284520 -7.056880 -24.328900 0.000322 -0.000009 15.857300 -18.940700 -138.810000 -22.291500 -0.000108 -0.000004 60.287700 5.658890 -15.934900 -2.192480 -6.469440 -0.000000 -168.504000 0.971312 -5.008820 39.081100 -0.000007 -0.000012 0.501178 -0.809666 31.758700 40.985400 -0.000006 -0.000013 -0.239819 6.432710 -78.411600 11.754300 -0.000000 0.000003 0.000567 0.157470 -10.190400 -2.192510 6.469440 -0.000001 -167.209000 7.381440 -176.749000 -39.081100 -0.002282 -0.040193 0.130410 -0.438094 16.176500 -40.985400 0.000008 0.000006 6.049800 1.920980 -71.175300 -11.754300 -0.000006 -0.000006 -0.010078 0.271885 -5.527270
0.000000 0.000000 0.000000 0.000000 0.000000 -0.000000 -4.266120 91.486100 -0.727403 81.462200 -3.742000 3.783910 15.735700 0.000005 -0.000001 73.514600 86.646600 -69.026000 8.984550 -0.406207 -0.000000 -1.230880 -2.254700 8.951050 16.377300 -0.000001 -0.000001 13.706600 4.247440 9.407350 6.456720 -0.000001 -0.000000 4.105400 7.660020 7.642640 12.994200 -0.242716 4.980390 -91.724200 4.862210 -70.447400 5.348090 -0.000007 -0.000001 -73.804900 -12.196500 3.752090 24.328600 0.000019 0.000005 39.159500 -41.066500 -128.891000 22.291600 -0.000001 0.000005 54.515100 4.975910 7.827360 12.994500 -0.242716 -4.980390 88.235200 4.846740 -69.964800 -5.348130 -0.000001 -0.000004 -70.096800 -1.332370 -6.876690 -24.328900 0.000322 -0.000009 15.883700 -18.910300 -138.716000 -22.291500 -0.000108 -0.000004 60.264400 5.658130 -15.851200 -2.192480 -6.469440 -0.000000 -168.537000 1.016180 -5.005910 39.081100 -0.000007 -0.000012 0.495274 -0.801318 31.720600 40.985400 -0.000006 -0.000013 -0.223276 6.436450 -78.379200 11.754300 -0.000000 0.000003 0.000649 0.155875 -10.255100 -2.192510 6.469440 -0.000001 -167.259000 7.448880 -176.738000 -39.081100 -0.002282 -0.040193 0.130161 -0.438017 16.149200 -40.985400 0.000008 0.000006 6.035410 1.978130 -71.176700 -11.754300 -0.000006 -0.000006 -0.010168 0.272554 -5.499900
0.000000 0.000000 0.000000 0.000000 0.000000 -0.000000 -4.246910 91.486000 -0.759321 81.450200 -3.694350 3.720210 15.735700 0.000005 -0.000001 73.746900 86.665800 -69.249900 8.984550 -0.406207 -0.000000 -1.261280 -2.219690 8.967360 16.377300 -0.000001 -0.000001 13.665500 4.278210 9.428230 6.456720 -0.000001 -0.000000 4.024210 7.635870 7.678670 12.994200 -0.242716 4.980390 -91.737300 4.882180 -70.385200 5.348090 -0.000007 -0.000001 -73.724800 -12.299200 3.799050 24.328600 0.000019 0.000005 38.716500 -40.808900 -129.189000 22.291600 -0.000001 0.000005 54.503800 4.995200 7.421250 12.994500 -0.242716 -4.980390 88.221700 4.887800 -69.979300 -5.348130 -0.000001 -0.000004 -70.130200 -1.373470 -6.843270 -24.328900 0.000322 -0.000009 15.757600 -18.785600 -138.773000 -22.291500 -0.000108 -0.000004 60.179800 5.660260 -16.089300 -2.192480 -6.469440 -0.000000 -168.547000 1.066820 -5.126740 39.081100 -0.000007 -0.000012 0.500416 -0.808323 31.762200 40.985400 -0.000006 -0.000013 -0.205474 6.442740 -78.382800 11.754300 -0.000000 0.000003 0.000547 0.157835 -10.175500 -2.192510 6.469440 -0.000001 -167.273000 7.547750 -176.855000 -39.081100 -0.002282 -0.040193 0.130328 -0.437194 16.198200 -40.985400 0.000008 0.000006 6.029590 2.058020 -71.171700 -11.754300 -0.000006 -0.000006 -0.010089 0.271967 -5.523900
